<svg xmlns="http://www.w3.org/2000/svg" viewBox="0 0 220 180" role="img" aria-labelledby="title desc">
  <title id="title">Gratuity calculator visual</title>
  <desc id="desc">A ledger, calculator keys, and rupee amount motif.</desc>
  <defs>
    <linearGradient id="paper" x1="20" x2="160" y1="12" y2="160" gradientUnits="userSpaceOnUse">
      <stop stop-color="#fff8e7"/>
      <stop offset="1" stop-color="#e8f3f0"/>
    </linearGradient>
    <linearGradient id="panel" x1="58" x2="190" y1="50" y2="170" gradientUnits="userSpaceOnUse">
      <stop stop-color="#184f52"/>
      <stop offset="1" stop-color="#0d3140"/>
    </linearGradient>
  </defs>
  <rect width="220" height="180" rx="0" fill="#f5f7f3"/>
  <path d="M46 18h89c14 0 25 11 25 25v105H70c-13 0-24-11-24-24V18z" fill="url(#paper)" stroke="#d4dfd7" stroke-width="3"/>
  <path d="M68 46h58M68 68h48M68 90h56M68 112h38" stroke="#6f837d" stroke-width="7" stroke-linecap="round"/>
  <rect x="92" y="56" width="92" height="100" rx="14" fill="url(#panel)" stroke="#123a3e" stroke-width="3"/>
  <rect x="109" y="73" width="58" height="20" rx="6" fill="#d9f0e6"/>
  <g fill="#f2c16b">
    <rect x="110" y="106" width="15" height="15" rx="4"/>
    <rect x="132" y="106" width="15" height="15" rx="4"/>
    <rect x="154" y="106" width="15" height="15" rx="4"/>
    <rect x="110" y="130" width="15" height="15" rx="4"/>
    <rect x="132" y="130" width="15" height="15" rx="4"/>
    <rect x="154" y="130" width="15" height="15" rx="4"/>
  </g>
  <circle cx="54" cy="136" r="24" fill="#d96941"/>
  <path d="M44 126h20M44 135h18M51 126c11 0 11 18 0 18h-2l15 12" fill="none" stroke="#fff7ec" stroke-width="5" stroke-linecap="round" stroke-linejoin="round"/>
  <path d="M173 31c14 5 24 18 26 34" stroke="#d96941" stroke-width="8" stroke-linecap="round"/>
</svg>
